ffmpeg started on 2025-06-19 at 11:58:22
Report written to "D:\Convert\FFMetrics\reports\ssim_report-6.txt"
Log level: 32
Command line:
ffmpeg -hide_banner -nostdin -i "G:\\\xc0\xed\xe8\xec\xe5\\[\xd2\xee\xef-4]\\Fate\\\xc0\xef\xee\xea\xf0\xe8\xf4\\Fate_Apocrypha_[13]_[AniLibria_TV]_[HDTVRip_720p]_HEVC.mkv" -i "G:\\\xc0\xed\xe8\xec\xe5\\[\xd2\xee\xef-4]\\Fate\\\xc0\xef\xee\xea\xf0\xe8\xf4\\Fate_Apocrypha_[13]_[AniLibria_TV]_[HDTVRip_720p].mkv" -lavfi "[0:v]settb=AVTB,setpts=PTS-STARTPTS,format=pix_fmts=yuv420p10,fps=24000/1001,scale=1280:720:flags=bicubic[main];[1:v]settb=AVTB,setpts=PTS-STARTPTS,format=pix_fmts=yuv420p,fps=24000/1001,scale=1280:720:flags=bicubic[ref];[main][ref]ssim=eof_action=endall:stats_file='D\\:/Convert/FFMetrics/logs/ssim_logfile-6.txt'" -f null -
Input #0, matroska,webm, from 'G:\Аниме\[Топ-4]\Fate\Апокриф\Fate_Apocrypha_[13]_[AniLibria_TV]_[HDTVRip_720p]_HEVC.mkv':
  Metadata:
    ENCODER         : Lavf61.7.100
  Duration: 00:24:00.17, start: -0.021000, bitrate: 613 kb/s
  Stream #0:0(jpn): Video: hevc (Main 10), yuv420p10le(tv, bt709, progressive), 1280x720 [SAR 1:1 DAR 16:9], 23.81 fps, 23.81 tbr, 1k tbn (default)
      Metadata:
        ENCODER         : Lavc61.19.100 libx265
        BPS             : 415995
        DURATION        : 00:24:00.054000000
        NUMBER_OF_FRAMES: 34526
        NUMBER_OF_BYTES : 74882086
        _STATISTICS_WRITING_APP: mkvpropedit v66.0.0 ('Josie') 64-bit
        _STATISTICS_WRITING_DATE_UTC: 2025-06-16 16:46:51
        _STATISTICS_TAGS: BPS DURATION NUMBER_OF_FRAMES NUMBER_OF_BYTES
  Stream #0:1(rus): Audio: aac (LC), 48000 Hz, stereo, fltp (default)
      Metadata:
        title           : Ados Amikiri Anzen Hekomi Silv
        ENCODER         : Lavc61.19.100 aac
        BPS             : 193740
        DURATION        : 00:24:00.149000000
        NUMBER_OF_FRAMES: 67508
        NUMBER_OF_BYTES : 34876986
        _STATISTICS_WRITING_APP: mkvpropedit v66.0.0 ('Josie') 64-bit
        _STATISTICS_WRITING_DATE_UTC: 2025-06-16 16:46:51
        _STATISTICS_TAGS: BPS DURATION NUMBER_OF_FRAMES NUMBER_OF_BYTES
  Stream #0:2(rus): Subtitle: ass (ssa) (default) (forced)
      Metadata:
        title           : Надписи
        BPS             : 490
        DURATION        : 00:00:03.000000000
        NUMBER_OF_FRAMES: 2
        NUMBER_OF_BYTES : 184
        _STATISTICS_WRITING_APP: mkvpropedit v66.0.0 ('Josie') 64-bit
        _STATISTICS_WRITING_DATE_UTC: 2025-06-16 16:46:51
        _STATISTICS_TAGS: BPS DURATION NUMBER_OF_FRAMES NUMBER_OF_BYTES
  Stream #0:3(rus): Subtitle: ass (ssa)
      Metadata:
        title           : Полные
        BPS             : 157
        DURATION        : 00:22:08.750000000
        NUMBER_OF_FRAMES: 339
        NUMBER_OF_BYTES : 26176
        _STATISTICS_WRITING_APP: mkvpropedit v66.0.0 ('Josie') 64-bit
        _STATISTICS_WRITING_DATE_UTC: 2025-06-16 16:46:51
        _STATISTICS_TAGS: BPS DURATION NUMBER_OF_FRAMES NUMBER_OF_BYTES
Input #1, matroska,webm, from 'G:\Аниме\[Топ-4]\Fate\Апокриф\Fate_Apocrypha_[13]_[AniLibria_TV]_[HDTVRip_720p].mkv':
  Metadata:
    encoder         : libebml v1.3.0 + libmatroska v1.4.1
    creation_time   : 2017-10-02T21:42:41.000000Z
  Duration: 00:24:00.15, start: 0.000000, bitrate: 2017 kb/s
  Stream #1:0: Video: h264 (Main), yuv420p(tv, bt709, progressive), 1280x720, SAR 1:1 DAR 16:9, 23.81 fps, 23.81 tbr, 1k tbn (default)
      Metadata:
        BPS             : 1614582
        BPS-eng         : 1614582
        DURATION        : 00:24:00.064000000
        DURATION-eng    : 00:24:00.064000000
        NUMBER_OF_FRAMES: 34526
        NUMBER_OF_FRAMES-eng: 34526
        NUMBER_OF_BYTES : 290637692
        NUMBER_OF_BYTES-eng: 290637692
        _STATISTICS_WRITING_APP: mkvmerge v7.3.0 ('Nouages') 64bit built on Oct 22 2014 18:53:34
        _STATISTICS_WRITING_APP-eng: mkvmerge v7.3.0 ('Nouages') 64bit built on Oct 22 2014 18:53:34
        _STATISTICS_WRITING_DATE_UTC: 2017-10-02 21:42:41
        _STATISTICS_WRITING_DATE_UTC-eng: 2017-10-02 21:42:41
        _STATISTICS_TAGS: BPS DURATION NUMBER_OF_FRAMES NUMBER_OF_BYTES
        _STATISTICS_TAGS-eng: BPS DURATION NUMBER_OF_FRAMES NUMBER_OF_BYTES
  Stream #1:1(rus): Audio: aac (LC), 48000 Hz, stereo, fltp (default)
      Metadata:
        title           : Ados Amikiri Anzen Hekomi Silv
        BPS             : 192092
        BPS-eng         : 192092
        DURATION        : 00:24:00.149000000
        DURATION-eng    : 00:24:00.149000000
        NUMBER_OF_FRAMES: 67507
        NUMBER_OF_FRAMES-eng: 67507
        NUMBER_OF_BYTES : 34580255
        NUMBER_OF_BYTES-eng: 34580255
        _STATISTICS_WRITING_APP: mkvmerge v7.3.0 ('Nouages') 64bit built on Oct 22 2014 18:53:34
        _STATISTICS_WRITING_APP-eng: mkvmerge v7.3.0 ('Nouages') 64bit built on Oct 22 2014 18:53:34
        _STATISTICS_WRITING_DATE_UTC: 2017-10-02 21:42:41
        _STATISTICS_WRITING_DATE_UTC-eng: 2017-10-02 21:42:41
        _STATISTICS_TAGS: BPS DURATION NUMBER_OF_FRAMES NUMBER_OF_BYTES
        _STATISTICS_TAGS-eng: BPS DURATION NUMBER_OF_FRAMES NUMBER_OF_BYTES
  Stream #1:2(rus): Audio: aac (LC), 48000 Hz, stereo, fltp
      Metadata:
        title           : Оригинал
        BPS             : 206132
        BPS-eng         : 206132
        DURATION        : 00:24:00.106000000
        DURATION-eng    : 00:24:00.106000000
        NUMBER_OF_FRAMES: 67505
        NUMBER_OF_FRAMES-eng: 67505
        NUMBER_OF_BYTES : 37106576
        NUMBER_OF_BYTES-eng: 37106576
        _STATISTICS_WRITING_APP: mkvmerge v7.3.0 ('Nouages') 64bit built on Oct 22 2014 18:53:34
        _STATISTICS_WRITING_APP-eng: mkvmerge v7.3.0 ('Nouages') 64bit built on Oct 22 2014 18:53:34
        _STATISTICS_WRITING_DATE_UTC: 2017-10-02 21:42:41
        _STATISTICS_WRITING_DATE_UTC-eng: 2017-10-02 21:42:41
        _STATISTICS_TAGS: BPS DURATION NUMBER_OF_FRAMES NUMBER_OF_BYTES
        _STATISTICS_TAGS-eng: BPS DURATION NUMBER_OF_FRAMES NUMBER_OF_BYTES
  Stream #1:3(rus): Subtitle: ass (ssa) (default) (forced)
      Metadata:
        title           : Надписи
        BPS             : 490
        BPS-eng         : 490
        DURATION        : 00:00:03.000000000
        DURATION-eng    : 00:00:03.000000000
        NUMBER_OF_FRAMES: 2
        NUMBER_OF_FRAMES-eng: 2
        NUMBER_OF_BYTES : 184
        NUMBER_OF_BYTES-eng: 184
        _STATISTICS_WRITING_APP: mkvmerge v7.3.0 ('Nouages') 64bit built on Oct 22 2014 18:53:34
        _STATISTICS_WRITING_APP-eng: mkvmerge v7.3.0 ('Nouages') 64bit built on Oct 22 2014 18:53:34
        _STATISTICS_WRITING_DATE_UTC: 2017-10-02 21:42:41
        _STATISTICS_WRITING_DATE_UTC-eng: 2017-10-02 21:42:41
        _STATISTICS_TAGS: BPS DURATION NUMBER_OF_FRAMES NUMBER_OF_BYTES
        _STATISTICS_TAGS-eng: BPS DURATION NUMBER_OF_FRAMES NUMBER_OF_BYTES
  Stream #1:4(rus): Subtitle: ass (ssa)
      Metadata:
        title           : Полные
        BPS             : 157
        BPS-eng         : 157
        DURATION        : 00:22:08.750000000
        DURATION-eng    : 00:22:08.750000000
        NUMBER_OF_FRAMES: 339
        NUMBER_OF_FRAMES-eng: 339
        NUMBER_OF_BYTES : 26176
        NUMBER_OF_BYTES-eng: 26176
        _STATISTICS_WRITING_APP: mkvmerge v7.3.0 ('Nouages') 64bit built on Oct 22 2014 18:53:34
        _STATISTICS_WRITING_APP-eng: mkvmerge v7.3.0 ('Nouages') 64bit built on Oct 22 2014 18:53:34
        _STATISTICS_WRITING_DATE_UTC: 2017-10-02 21:42:41
        _STATISTICS_WRITING_DATE_UTC-eng: 2017-10-02 21:42:41
        _STATISTICS_TAGS: BPS DURATION NUMBER_OF_FRAMES NUMBER_OF_BYTES
        _STATISTICS_TAGS-eng: BPS DURATION NUMBER_OF_FRAMES NUMBER_OF_BYTES
  Stream #1:5: Attachment: ttf
      Metadata:
        filename        : ALBR.ttf
        mimetype        : application/x-truetype-font
  Stream #1:6: Attachment: ttf
      Metadata:
        filename        : 9511(1).ttf
        mimetype        : application/x-truetype-font
Stream mapping:
  Stream #0:0 (hevc) -> settb:default
  Stream #1:0 (h264) -> settb:default
  ssim:default -> Stream #0:0 (wrapped_avframe)
  Stream #0:1 -> #0:1 (aac (native) -> pcm_s16le (native))
Output #0, null, to 'pipe:':
  Metadata:
    encoder         : Lavf61.7.100
  Stream #0:0: Video: wrapped_avframe, yuv420p10le(tv, bt709, progressive), 1280x720 [SAR 1:1 DAR 16:9], q=2-31, 200 kb/s, 23.98 fps, 23.98 tbn
      Metadata:
        encoder         : Lavc61.19.100 wrapped_avframe
  Stream #0:1(rus): Audio: pcm_s16le, 48000 Hz, stereo, s16, 1536 kb/s (default)
      Metadata:
        title           : Ados Amikiri Anzen Hekomi Silv
        _STATISTICS_TAGS: BPS DURATION NUMBER_OF_FRAMES NUMBER_OF_BYTES
        BPS             : 193740
        DURATION        : 00:24:00.149000000
        NUMBER_OF_FRAMES: 67508
        NUMBER_OF_BYTES : 34876986
        _STATISTICS_WRITING_APP: mkvpropedit v66.0.0 ('Josie') 64-bit
        _STATISTICS_WRITING_DATE_UTC: 2025-06-16 16:46:51
        encoder         : Lavc61.19.100 pcm_s16le
frame=  531 fps=0.0 q=-0.0 size=N/A time=00:00:22.14 bitrate=N/A speed=42.9x    frame= 1110 fps=1080 q=-0.0 size=N/A time=00:00:46.29 bitrate=N/A speed=  45x    frame= 1746 fps=1136 q=-0.0 size=N/A time=00:01:12.82 bitrate=N/A speed=47.4x    frame= 2300 fps=1116 q=-0.0 size=N/A time=00:01:35.92 bitrate=N/A speed=46.5x    frame= 2852 fps=1109 q=-0.0 size=N/A time=00:01:58.95 bitrate=N/A speed=46.3x    frame= 3207 fps=1040 q=-0.0 size=N/A time=00:02:13.75 bitrate=N/A speed=43.4x    frame= 3663 fps=1015 q=-0.0 size=N/A time=00:02:32.77 bitrate=N/A speed=42.3x    frame= 4049 fps=984 q=-0.0 size=N/A time=00:02:48.87 bitrate=N/A speed=  41x    frame= 4472 fps=963 q=-0.0 size=N/A time=00:03:06.51 bitrate=N/A speed=40.2x    frame= 4819 fps=935 q=-0.0 size=N/A time=00:03:20.99 bitrate=N/A speed=  39x    frame= 5348 fps=945 q=-0.0 size=N/A time=00:03:43.05 bitrate=N/A speed=39.4x    frame= 5799 fps=937 q=-0.0 size=N/A time=00:04:01.86 bitrate=N/A speed=39.1x    frame= 6432 fps=960 q=-0.0 size=N/A time=00:04:28.26 bitrate=N/A speed=40.1x    frame= 7015 fps=973 q=-0.0 size=N/A time=00:04:52.58 bitrate=N/A speed=40.6x    frame= 7561 fps=978 q=-0.0 size=N/A time=00:05:15.35 bitrate=N/A speed=40.8x    frame= 8082 fps=981 q=-0.0 size=N/A time=00:05:37.08 bitrate=N/A speed=40.9x    frame= 8617 fps=983 q=-0.0 size=N/A time=00:05:59.40 bitrate=N/A speed=  41x    frame= 9161 fps=987 q=-0.0 size=N/A time=00:06:22.09 bitrate=N/A speed=41.2x    frame= 9642 fps=985 q=-0.0 size=N/A time=00:06:42.15 bitrate=N/A speed=41.1x    frame=10143 fps=984 q=-0.0 size=N/A time=00:07:03.04 bitrate=N/A speed=  41x    frame=10730 fps=992 q=-0.0 size=N/A time=00:07:27.53 bitrate=N/A speed=41.4x    frame=11357 fps=1001 q=-0.0 size=N/A time=00:07:53.68 bitrate=N/A speed=41.8x    frame=11871 fps=1002 q=-0.0 size=N/A time=00:08:15.11 bitrate=N/A speed=41.8x    frame=12406 fps=1004 q=-0.0 size=N/A time=00:08:37.43 bitrate=N/A speed=41.9x    frame=12859 fps=998 q=-0.0 size=N/A time=00:08:56.32 bitrate=N/A speed=41.6x    frame=13377 fps=998 q=-0.0 size=N/A time=00:09:17.93 bitrate=N/A speed=41.6x    frame=13946 fps=1003 q=-0.0 size=N/A time=00:09:41.66 bitrate=N/A speed=41.8x    frame=14502 fps=1005 q=-0.0 size=N/A time=00:10:04.85 bitrate=N/A speed=41.9x    frame=15095 fps=1009 q=-0.0 size=N/A time=00:10:29.58 bitrate=N/A speed=42.1x    frame=15631 fps=1011 q=-0.0 size=N/A time=00:10:51.94 bitrate=N/A speed=42.2x    frame=16170 fps=1012 q=-0.0 size=N/A time=00:11:14.42 bitrate=N/A speed=42.2x    frame=16699 fps=1012 q=-0.0 size=N/A time=00:11:36.48 bitrate=N/A speed=42.2x    frame=17199 fps=1011 q=-0.0 size=N/A time=00:11:57.34 bitrate=N/A speed=42.2x    frame=17649 fps=1007 q=-0.0 size=N/A time=00:12:16.11 bitrate=N/A speed=  42x    frame=18057 fps=1001 q=-0.0 size=N/A time=00:12:33.12 bitrate=N/A speed=41.7x    frame=18527 fps=998 q=-0.0 size=N/A time=00:12:52.73 bitrate=N/A speed=41.6x    frame=19007 fps=997 q=-0.0 size=N/A time=00:13:12.75 bitrate=N/A speed=41.6x    frame=19626 fps=1002 q=-0.0 size=N/A time=00:13:38.56 bitrate=N/A speed=41.8x    frame=20149 fps=1002 q=-0.0 size=N/A time=00:14:00.38 bitrate=N/A speed=41.8x    frame=20638 fps=1001 q=-0.0 size=N/A time=00:14:20.77 bitrate=N/A speed=41.7x    frame=21262 fps=1006 q=-0.0 size=N/A time=00:14:46.80 bitrate=N/A speed=  42x    frame=21775 fps=1006 q=-0.0 size=N/A time=00:15:08.19 bitrate=N/A speed=  42x    frame=22372 fps=1009 q=-0.0 size=N/A time=00:15:33.09 bitrate=N/A speed=42.1x    frame=22866 fps=1008 q=-0.0 size=N/A time=00:15:53.70 bitrate=N/A speed=  42x    frame=23287 fps=1004 q=-0.0 size=N/A time=00:16:11.30 bitrate=N/A speed=41.9x    frame=23801 fps=1003 q=-0.0 size=N/A time=00:16:32.70 bitrate=N/A speed=41.8x    frame=24242 fps=1001 q=-0.0 size=N/A time=00:16:51.09 bitrate=N/A speed=41.7x    frame=24809 fps=1003 q=-0.0 size=N/A time=00:17:14.74 bitrate=N/A speed=41.8x    frame=25319 fps=1002 q=-0.0 size=N/A time=00:17:36.01 bitrate=N/A speed=41.8x    frame=25777 fps=1000 q=-0.0 size=N/A time=00:17:55.11 bitrate=N/A speed=41.7x    frame=26351 fps=1002 q=-0.0 size=N/A time=00:18:19.05 bitrate=N/A speed=41.8x    frame=26962 fps=1005 q=-0.0 size=N/A time=00:18:44.54 bitrate=N/A speed=41.9x    frame=27603 fps=1010 q=-0.0 size=N/A time=00:19:11.27 bitrate=N/A speed=42.1x    frame=28228 fps=1013 q=-0.0 size=N/A time=00:19:37.34 bitrate=N/A speed=42.3x    frame=28792 fps=1015 q=-0.0 size=N/A time=00:20:00.86 bitrate=N/A speed=42.3x    frame=29345 fps=1016 q=-0.0 size=N/A time=00:20:23.93 bitrate=N/A speed=42.4x    frame=29919 fps=1018 q=-0.0 size=N/A time=00:20:47.87 bitrate=N/A speed=42.5x    frame=30532 fps=1020 q=-0.0 size=N/A time=00:21:13.43 bitrate=N/A speed=42.6x    frame=31051 fps=1020 q=-0.0 size=N/A time=00:21:35.08 bitrate=N/A speed=42.6x    frame=31642 fps=1023 q=-0.0 size=N/A time=00:21:59.73 bitrate=N/A speed=42.6x    frame=32205 fps=1023 q=-0.0 size=N/A time=00:22:23.21 bitrate=N/A speed=42.7x    frame=32770 fps=1025 q=-0.0 size=N/A time=00:22:46.78 bitrate=N/A speed=42.7x    frame=33322 fps=1026 q=-0.0 size=N/A time=00:23:09.80 bitrate=N/A speed=42.8x    frame=33719 fps=1021 q=-0.0 size=N/A time=00:23:26.36 bitrate=N/A speed=42.6x    frame=34218 fps=1021 q=-0.0 size=N/A time=00:23:47.17 bitrate=N/A speed=42.6x    [Parsed_ssim_10 @ 0000027775ce25c0] SSIM Y:0.990697 (20.313577) U:0.991485 (20.698326) V:0.991839 (20.882601) All:0.991018 (20.466492)
[out#0/null @ 0000027769e3ebc0] video:14836KiB audio:270032KiB subtitle:0KiB other streams:0KiB global headers:0KiB muxing overhead: unknown
frame=34527 fps=1022 q=-0.0 Lsize=N/A time=00:24:00.06 bitrate=N/A speed=42.6x    
